# xmcd
#
# Track frame offsets:
#  150
#  12217
#  23342
#  36055
#  47855
#  61075
#  74645
#  87005
#  97200
#  109107
#  122422
#  134922
#  148292
#  161207
#  173765
#  186430
#  198550
#  210415
#  222355
#  234957
#  248712
#  260670
#  273530
#  287742
#  299745
#  314712
#  328037
#
# Disc length: 4581 seconds
#
# Revision: 3
# Processed by: cddbd v1.5.1PL0 Copyright (c) Steve Scherf et al.
# Submitted via: Collectorz.com Music Collector 6.9
#
DISCID=ae11e31b
DTITLE=Various Artist - Motown Changing Times 1967/68
DYEAR=1967
DGENRE=Soul
TTITLE0=Isley Brothers - Take Me In Your Arms (Rock Me A Little While)
TTITLE1=Tammi Terretll - This Old Heart Of Mine (Is Weak For You)
TTITLE2=Marvin Gaye and Tami Terrell - You Ain't Livin' Till You're Lovin'
TTITLE3=Edwin Starr - I Want My Baby Back
TTITLE4=Stevie Wonder - I'm Wondering
TTITLE5=Martha Reeves and Vandellas - Honey Chile
TTITLE6=Smokey Robinson and The Miracles - I Second that emotion
TTITLE7=Marvin Gaye and Tammi Terrell - Ain't Nothing like the real thing
TTITLE8=The Marvellettes - Destination: Anywhere
TTITLE9=Four Tops - I'm In a different world
TTITLE10=Stevie Wonder - Shoo-Be-Doo-Be-Doo-Da-Day
TTITLE11=Stevie Wonder - My Cherie Amour
TTITLE12=Bobby Taylor and The Vancouvers - Does your mama know About Me
TTITLE13=Jimmy Ruffin - Its Wonderful (To Be Loved By You)
TTITLE14=Stevie Wonder - For Once In My Life
TTITLE15=Marv Johnson - I'll Pick A Rose For My Rose
TTITLE16=Isley Brothers - All Because I Love You
TTITLE17=Marvin Gaye - Chained
TTITLE18=The Marvelettes - Here I Am Baby
TTITLE19=Gladys Knight and The Pips - The Nitty Gritty
TTITLE20=Shorty Long - Here Comes The Judge
TTITLE21=Marvin Gaye and Tammi Terrell - You're All I Need To Get By
TTITLE22=Diana Ross and The Supremes and The Temptations - I'm Gonna make you love me
TTITLE23=Martha Reeves and The Vandellas - I Can't Dance To That Music You're Playin'
TTITLE24=The Originals - Baby I'm For Real
TTITLE25=Four Tops - Yesterday's dreams
TTITLE26=David Ruffin - My Whole World Ended (The Moment You Left Me)
EXTD=
EXTT0=
EXTT1=
EXTT2=
EXTT3=
EXTT4=
EXTT5=
EXTT6=
EXTT7=
EXTT8=
EXTT9=
EXTT10=
EXTT11=
EXTT12=
EXTT13=
EXTT14=
EXTT15=
EXTT16=
EXTT17=
EXTT18=
EXTT19=
EXTT20=
EXTT21=
EXTT22=
EXTT23=
EXTT24=
EXTT25=
EXTT26=
PLAYORDER=
